<svg width="24" height="24" viewBox="0 0 24 24" fill="none" xmlns="http://www.w3.org/2000/svg">
<g clip-path="url(#clip0_43_45)">
<path d="M19.0002 24H17.0002C16.4482 24 16.0002 23.552 16.0002 23C16.0002 22.448 16.4482 22 17.0002 22H19.0002C19.5522 22 20.0002 22.448 20.0002 23C20.0002 23.552 19.5522 24 19.0002 24ZM13.0002 24H11.0002C10.4482 24 10.0002 23.552 10.0002 23C10.0002 22.448 10.4482 22 11.0002 22H13.0002C13.5522 22 14.0002 22.448 14.0002 23C14.0002 23.552 13.5522 24 13.0002 24ZM22.4432 22.393C22.2572 22.393 22.0702 22.342 21.9022 22.233C21.4382 21.934 21.3042 21.315 21.6042 20.851C21.8632 20.45 22.0002 19.982 22.0002 19.5C22.0002 18.948 22.4482 18.5 23.0002 18.5C23.5532 18.5 24.0002 18.948 24.0002 19.5C24.0002 20.368 23.7522 21.209 23.2852 21.934C23.0942 22.23 22.7722 22.392 22.4442 22.392L22.4432 22.393ZM20.9542 17.316C20.8152 17.316 20.6732 17.287 20.5382 17.225C20.2122 17.076 19.8622 17 19.4982 17H18.9992C18.4472 17 17.9992 16.552 17.9992 16C17.9992 15.448 18.4472 15 18.9992 15H19.4992C20.1522 15 20.7812 15.137 21.3702 15.407C21.8722 15.636 22.0932 16.23 21.8632 16.732C21.6952 17.099 21.3322 17.316 20.9532 17.316H20.9542ZM15.0002 17C14.1062 17 13.2282 16.696 12.5272 16.144C12.0932 15.802 12.0182 15.173 12.3602 14.74C12.7022 14.306 13.3322 14.231 13.7642 14.573C14.1192 14.852 14.5462 15 14.9992 15C15.5512 15 15.9992 15.448 15.9992 16C15.9992 16.552 15.5522 17 14.9992 17H15.0002ZM12.2702 12.754C12.1312 12.754 11.9902 12.725 11.8552 12.663C11.3532 12.434 11.1312 11.84 11.3612 11.338C11.5732 10.874 11.8692 10.459 12.2402 10.105C12.6382 9.725 13.2732 9.739 13.6542 10.139C14.0352 10.538 14.0202 11.171 13.6202 11.553C13.4342 11.73 13.2872 11.938 13.1812 12.17C13.0132 12.538 12.6502 12.755 12.2712 12.755L12.2702 12.754ZM22.5362 1.464C21.5912 0.52 20.3352 0 19.0002 0C17.6652 0 16.4092 0.52 15.4642 1.464C13.5152 3.414 13.5152 6.586 15.4722 8.543L17.2732 10.304C17.7492 10.77 18.3752 11.003 19.0002 11.003C19.6252 11.003 20.2512 10.77 20.7272 10.304L22.5362 8.535C24.4852 6.585 24.4852 3.413 22.5362 1.464ZM19.0002 6.5C18.1722 6.5 17.5002 5.828 17.5002 5C17.5002 4.172 18.1722 3.5 19.0002 3.5C19.8282 3.5 20.5002 4.172 20.5002 5C20.5002 5.828 19.8282 6.5 19.0002 6.5ZM8.53517 14.464C7.59117 13.52 6.33517 13 5.00017 13C3.66517 13 2.40917 13.52 1.46417 14.464C-0.48483 16.414 -0.48483 19.586 1.47217 21.543L3.27317 23.304C3.74917 23.77 4.37517 24.003 5.00017 24.003C5.62517 24.003 6.25117 23.77 6.72717 23.304L8.53517 21.535C10.4852 19.585 10.4852 16.413 8.53517 14.464ZM5.00017 19.5C4.17217 19.5 3.50017 18.828 3.50017 18C3.50017 17.172 4.17217 16.5 5.00017 16.5C5.82817 16.5 6.50017 17.172 6.50017 18C6.50017 18.828 5.82817 19.5 5.00017 19.5Z" fill="#AA13B2"/>
</g>
<defs>
<clipPath id="clip0_43_45">
<rect width="24" height="24" fill="white"/>
</clipPath>
</defs>
</svg>
