<svg width="16" height="16" viewBox="0 0 16 16" fill="none" xmlns="http://www.w3.org/2000/svg">
<path d="M7.99992 0C6.2324 0.00194106 4.53784 0.704943 3.28802 1.95477C2.0382 3.20459 1.33519 4.89915 1.33325 6.66667C1.33325 10.188 6.93325 15.022 7.56925 15.562L7.99992 15.926L8.43059 15.562C9.06659 15.022 14.6666 10.188 14.6666 6.66667C14.6646 4.89915 13.9616 3.20459 12.7118 1.95477C11.462 0.704943 9.76743 0.00194106 7.99992 0ZM7.99992 10C7.34065 10 6.69618 9.8045 6.14802 9.43823C5.59985 9.07196 5.17261 8.55137 4.92032 7.94228C4.66803 7.33319 4.60202 6.66297 4.73063 6.01637C4.85925 5.36976 5.17672 4.77582 5.6429 4.30964C6.10907 3.84347 6.70301 3.526 7.34962 3.39738C7.99622 3.26877 8.66644 3.33478 9.27553 3.58707C9.88462 3.83936 10.4052 4.2666 10.7715 4.81477C11.1378 5.36293 11.3333 6.0074 11.3333 6.66667C11.3322 7.5504 10.9807 8.39763 10.3558 9.02252C9.73088 9.64741 8.88365 9.99894 7.99992 10Z" fill="black"/>
<path d="M8 8.66663C9.10457 8.66663 10 7.7712 10 6.66663C10 5.56206 9.10457 4.66663 8 4.66663C6.89543 4.66663 6 5.56206 6 6.66663C6 7.7712 6.89543 8.66663 8 8.66663Z" fill="black"/>
</svg>
