<svg width="30" height="30" viewBox="0 0 30 30" fill="none" xmlns="http://www.w3.org/2000/svg">
<g clip-path="url(#clip0_17_310)">
<path d="M15 30C10.9934 30 7.22654 28.4397 4.39336 25.6066C1.56029 22.7735 0 19.0066 0 15H2.34375C2.34375 18.3806 3.66023 21.5589 6.05068 23.9493C8.44113 26.3398 11.6194 27.6562 15 27.6562C17.164 27.6562 19.3001 27.1001 21.1772 26.048L21.4442 25.8984H25.8984V21.4442L26.048 21.1772C27.1001 19.3001 27.6562 17.164 27.6562 15C27.6562 11.6194 26.3398 8.44113 23.9493 6.05068C21.5589 3.66023 18.3806 2.34375 15 2.34375C12.9387 2.34375 10.8933 2.85006 9.08502 3.80789C8.05143 4.35539 7.09441 5.0492 6.24791 5.85938H10.7287V8.20312H2.52557V0H4.86932V3.94002C5.81104 3.07729 6.86103 2.33367 7.98791 1.73678C10.1329 0.600586 12.5576 0 15 0C19.0066 0 22.7735 1.56029 25.6066 4.39336C28.4397 7.22654 30 10.9934 30 15C30 17.4598 29.393 19.8903 28.2422 22.0495V28.2422H22.0495C19.8903 29.393 17.4598 30 15 30ZM20.8594 19.6875H18.5156V10.3125H20.8594V19.6875ZM16.1719 19.6875H13.8281V17.3438H11.4844V19.6875H9.14062V13.8281C9.14062 11.8896 10.7177 10.3125 12.6562 10.3125C14.5948 10.3125 16.1719 11.8896 16.1719 13.8281V19.6875ZM11.4844 15H13.8281V13.8281C13.8281 13.182 13.3024 12.6562 12.6562 12.6562C12.0101 12.6562 11.4844 13.182 11.4844 13.8281V15Z" fill="white"/>
</g>
<defs>
<clipPath id="clip0_17_310">
<rect width="30" height="30" fill="white"/>
</clipPath>
</defs>
</svg>
