<svg width="54" height="54" viewBox="0 0 54 54" fill="none" xmlns="http://www.w3.org/2000/svg">
<path d="M15.9069 34.7419C15.9069 33.8451 15.2846 33.3103 14.1867 33.3103C13.7383 33.3103 13.4347 33.3545 13.2759 33.3969V36.2742C13.4639 36.3165 13.6951 36.3306 14.0137 36.3306C15.184 36.3306 15.9069 35.7394 15.9069 34.7419Z" fill="#C0C0C0"/>
<path d="M22.7037 33.3405C22.212 33.3405 21.8942 33.3829 21.7063 33.4269V39.7993C21.8943 39.8434 22.198 39.8434 22.4725 39.8434C24.4671 39.8576 25.768 38.7596 25.768 36.4331C25.7821 34.4101 24.5967 33.3405 22.7037 33.3405Z" fill="#C0C0C0"/>
<path d="M35.3315 0H13.6429C10.4744 0 7.89561 2.58061 7.89561 5.74731V26.9999H7.33426C6.05544 26.9999 5.01831 28.036 5.01831 29.3159V43.3613C5.01831 44.6411 6.05532 45.6771 7.33426 45.6771H7.89561V48.2526C7.89561 51.4228 10.4744 53.9999 13.6429 53.9999H43.2361C46.4026 53.9999 48.9817 51.4226 48.9817 48.2526V13.6024L35.3315 0ZM11.094 31.8506C11.7727 31.7359 12.7268 31.6495 14.0709 31.6495C15.4292 31.6495 16.3974 31.9088 17.0479 32.4296C17.6692 32.9204 18.0886 33.7305 18.0886 34.6838C18.0886 35.6369 17.7708 36.4473 17.1927 36.9962C16.4407 37.704 15.3286 38.0218 14.0278 38.0218C13.7382 38.0218 13.4787 38.0074 13.2758 37.9793V41.4621H11.094V31.8506ZM43.2361 50.4802H13.6429C12.4161 50.4802 11.417 49.4811 11.417 48.2526V45.6771H39.0039C40.283 45.6771 41.32 44.6411 41.32 43.3613V29.3159C41.32 28.036 40.283 26.9999 39.0039 26.9999H11.417V5.74731C11.417 4.52225 12.4162 3.5232 13.6429 3.5232L34.0147 3.50192V11.0321C34.0147 13.2315 35.7993 15.0178 38.0005 15.0178L45.3771 14.9967L45.4601 48.2525C45.4601 49.4811 44.4628 50.4802 43.2361 50.4802ZM19.4954 41.418V31.8506C20.3046 31.7218 21.3593 31.6495 22.4724 31.6495C24.3222 31.6495 25.5217 31.9813 26.4616 32.6891C27.4731 33.441 28.1085 34.6397 28.1085 36.3606C28.1085 38.2246 27.4298 39.5115 26.4897 40.3057C25.4641 41.1582 23.903 41.5625 21.9957 41.5625C20.8535 41.5625 20.0443 41.4902 19.4954 41.418ZM35.2681 35.7535V37.5451H31.7703V41.4621H29.5594V31.7218H35.5134V33.5275H31.7703V35.7535H35.2681Z" fill="#C0C0C0"/>
</svg>
