<svg width="16" height="17" viewBox="0 0 16 17" fill="none" xmlns="http://www.w3.org/2000/svg">
<g clip-path="url(#clip0_17_237)">
<path d="M16 5.16667V5.83333H0V5.16667C0 3.326 1.49267 1.83333 3.33333 1.83333H4V1.16667C4 0.798667 4.29867 0.5 4.66667 0.5C5.03467 0.5 5.33333 0.798667 5.33333 1.16667V1.83333H10.6667V1.16667C10.6667 0.798667 10.9653 0.5 11.3333 0.5C11.7013 0.5 12 0.798667 12 1.16667V1.83333H12.6667C14.5073 1.83333 16 3.326 16 5.16667ZM16 11.8333C16 14.4067 13.906 16.5 11.3333 16.5C8.76067 16.5 6.66667 14.4067 6.66667 11.8333C6.66667 9.26 8.76067 7.16667 11.3333 7.16667C13.906 7.16667 16 9.26 16 11.8333ZM12.6667 12.224L12 11.5573V10.5C12 10.132 11.7013 9.83333 11.3333 9.83333C10.9653 9.83333 10.6667 10.132 10.6667 10.5V11.8333C10.6667 12.01 10.7367 12.18 10.862 12.3047L11.724 13.1667C11.984 13.4267 12.4067 13.4267 12.6667 13.1667C12.9267 12.9067 12.9267 12.484 12.6667 12.224ZM5.33333 11.8333C5.33333 9.94733 6.20533 8.26667 7.566 7.16667H0V13.1667C0 15.0073 1.49267 16.5 3.33333 16.5H7.566C6.20533 15.4 5.33333 13.7193 5.33333 11.8333Z" fill="black"/>
</g>
<defs>
<clipPath id="clip0_17_237">
<rect width="16" height="16" fill="white" transform="translate(0 0.5)"/>
</clipPath>
</defs>
</svg>
