<svg width="32" height="32" viewBox="0 0 29 28" fill="none" xmlns="http://www.w3.org/2000/svg">
<g clip-path="url(#clip0_28_4)">
<path d="M23.8291 10.2924C22.535 5.13715 17.3068 2.00707 12.1515 3.30116C8.12283 4.3125 5.19753 7.79445 4.89613 11.9372C2.03557 12.4089 0.0990276 15.1102 0.570765 17.9708C0.990118 20.5139 3.19367 22.3763 5.77103 22.366H10.1456V20.6162H5.77103C3.83826 20.6162 2.27141 19.0494 2.27141 17.1166C2.27141 15.1838 3.83826 13.617 5.77103 13.617C6.25425 13.617 6.64594 13.2253 6.64594 12.7421C6.64156 8.39333 10.1634 4.8644 14.5122 4.86008C18.2767 4.85631 21.5173 7.51766 22.2455 11.211C22.3174 11.5798 22.6167 11.8615 22.9891 11.9109C25.381 12.2515 27.0438 14.4666 26.7033 16.8585C26.3974 19.0062 24.5636 20.6054 22.3942 20.6162H18.8946V22.366H22.3942C25.7766 22.3558 28.5102 19.6056 28.5 16.2232C28.4914 13.4076 26.5642 10.9606 23.8291 10.2924Z" fill="#323232"/>
<path d="M13.8988 13.8708L10.3992 17.3704L11.6328 18.604L13.6451 16.6005V24.9908H15.3949V16.6005L17.3984 18.604L18.632 17.3704L15.1324 13.8708C14.7911 13.5315 14.2401 13.5315 13.8988 13.8708Z" fill="#323232"/>
</g>
<defs>
<clipPath id="clip0_28_4">
<rect width="32" height="32" transform="translate(0.5)"/>
</clipPath>
</defs>
</svg>
