<svg width="257" height="27" viewBox="0 0 257 27" fill="none" xmlns="http://www.w3.org/2000/svg">
<path d="M10.332 26.028C7.38 26.028 4.956 25.332 3.06 23.94C1.164 22.524 0.144 20.508 0 17.892H7.524C7.596 18.78 7.86 19.428 8.316 19.836C8.772 20.244 9.36 20.448 10.08 20.448C10.728 20.448 11.256 20.292 11.664 19.98C12.096 19.644 12.312 19.188 12.312 18.612C12.312 17.868 11.964 17.292 11.268 16.884C10.572 16.476 9.444 16.02 7.884 15.516C6.228 14.964 4.884 14.436 3.852 13.932C2.844 13.404 1.956 12.648 1.188 11.664C0.444 10.656 0.072 9.348 0.072 7.74C0.072 6.108 0.48 4.716 1.296 3.564C2.112 2.388 3.24 1.5 4.68 0.899999C6.12 0.3 7.752 0 9.576 0C12.528 0 14.88 0.696 16.632 2.088C18.408 3.456 19.356 5.388 19.476 7.884H11.808C11.784 7.116 11.544 6.54 11.088 6.156C10.656 5.772 10.092 5.58 9.396 5.58C8.868 5.58 8.436 5.736 8.1 6.048C7.764 6.36 7.596 6.804 7.596 7.38C7.596 7.86 7.776 8.28 8.136 8.64C8.52 8.976 8.988 9.276 9.54 9.54C10.092 9.78 10.908 10.092 11.988 10.476C13.596 11.028 14.916 11.58 15.948 12.132C17.004 12.66 17.904 13.416 18.648 14.4C19.416 15.36 19.8 16.584 19.8 18.072C19.8 19.584 19.416 20.94 18.648 22.14C17.904 23.34 16.812 24.288 15.372 24.984C13.956 25.68 12.276 26.028 10.332 26.028Z" fill="#323232"/>
<path d="M52.7082 0.395999V25.776H45.6522V11.772L40.8642 25.776H34.9602L30.1362 11.664V25.776H23.0802V0.395999H31.6122L37.9842 16.884L44.2122 0.395999H52.7082Z" fill="#323232"/>
<path d="M72.7808 21.636H63.7808L62.4128 25.776H54.9967L64.2487 0.395999H72.3848L81.6008 25.776H74.1488L72.7808 21.636ZM71.0167 16.236L68.2807 8.028L65.5807 16.236H71.0167Z" fill="#323232"/>
<path d="M96.7525 25.776L91.7125 16.416H90.9565V25.776H83.9005V0.395999H95.0245C97.0645 0.395999 98.7925 0.756 100.209 1.476C101.625 2.172 102.693 3.144 103.413 4.392C104.133 5.616 104.493 6.996 104.493 8.532C104.493 10.26 104.013 11.784 103.053 13.104C102.117 14.4 100.737 15.324 98.9125 15.876L104.637 25.776H96.7525ZM90.9565 11.592H94.4485C95.4085 11.592 96.1285 11.364 96.6085 10.908C97.0885 10.452 97.3285 9.792 97.3285 8.928C97.3285 8.112 97.0765 7.476 96.5725 7.02C96.0925 6.54 95.3845 6.3 94.4485 6.3H90.9565V11.592Z" fill="#323232"/>
<path d="M126.817 0.395999V6.012H120.049V25.776H112.993V6.012H106.297V0.395999H126.817Z" fill="#323232"/>
<path d="M152.28 25.776L147.24 16.416H146.484V25.776H139.428V0.395999H150.552C152.592 0.395999 154.32 0.756 155.736 1.476C157.152 2.172 158.22 3.144 158.94 4.392C159.66 5.616 160.02 6.996 160.02 8.532C160.02 10.26 159.54 11.784 158.58 13.104C157.644 14.4 156.264 15.324 154.44 15.876L160.164 25.776H152.28ZM146.484 11.592H149.976C150.936 11.592 151.656 11.364 152.136 10.908C152.616 10.452 152.856 9.792 152.856 8.928C152.856 8.112 152.604 7.476 152.1 7.02C151.62 6.54 150.912 6.3 149.976 6.3H146.484V11.592Z" fill="#AA13B2"/>
<path d="M231.271 13.032C231.271 10.536 231.787 8.316 232.819 6.372C233.875 4.404 235.363 2.88 237.283 1.8C239.203 0.696 241.411 0.144 243.907 0.144C247.075 0.144 249.739 0.996 251.899 2.7C254.059 4.38 255.451 6.672 256.075 9.576H248.479C248.023 8.616 247.387 7.884 246.571 7.38C245.779 6.876 244.855 6.624 243.799 6.624C242.167 6.624 240.859 7.212 239.875 8.388C238.915 9.54 238.435 11.088 238.435 13.032C238.435 15 238.915 16.572 239.875 17.748C240.859 18.9 242.167 19.476 243.799 19.476C244.855 19.476 245.779 19.224 246.571 18.72C247.387 18.216 248.023 17.484 248.479 16.524H256.075C255.451 19.428 254.059 21.732 251.899 23.436C249.739 25.116 247.075 25.956 243.907 25.956C241.411 25.956 239.203 25.416 237.283 24.336C235.363 23.232 233.875 21.708 232.819 19.764C231.787 17.796 231.271 15.552 231.271 13.032Z" fill="#AA13B2"/>
<rect x="164" y="19.776" width="3" height="6" fill="#AA13B2"/>
<rect x="226" y="19.776" width="3" height="6" fill="#AA13B2"/>
<rect x="166" y="22.776" width="63" height="3" fill="#AA13B2"/>
</svg>
