<svg width="34" height="40" viewBox="0 0 34 40" fill="none" xmlns="http://www.w3.org/2000/svg">
<path d="M32.3804 32.694V26.5259C32.3804 25.2006 31.306 24.1262 29.9807 24.1262H29.3534V1.6077C29.3534 1.40626 29.2523 1.21829 29.0843 1.10724L27.5611 0.100445C27.1622 -0.16315 26.6305 0.122798 26.6305 0.600902V7.83306L26.1765 6.60861C25.5661 4.96182 23.9953 3.86888 22.239 3.86888H11.7516C9.98498 3.86888 8.40727 4.9745 7.80433 6.63508L7.36936 7.83306V0.600902C7.36936 0.122863 6.83753 -0.16315 6.43864 0.100445L4.91537 1.10718C4.74733 1.21822 4.64622 1.4062 4.64622 1.60763V24.1262H4.01897C2.69367 24.1262 1.61929 25.2006 1.61929 26.5259V32.694H0.59694C0.265632 32.694 -0.00292969 32.9626 -0.00292969 33.294V36.6105C-0.00292969 36.9418 0.265632 37.2104 0.59694 37.2104H3.18504V38.8001C3.18504 39.4628 3.72223 39.9999 4.38491 39.9999H7.56433C8.227 39.9999 8.76419 39.4627 8.76419 38.8001V37.2104H25.2357V38.8001C25.2357 39.4628 25.773 39.9999 26.4355 39.9999H29.615C30.2777 39.9999 30.8148 39.4627 30.8148 38.8001V37.2104H33.4029C33.7343 37.2104 34.0028 36.9418 34.0028 36.6105V33.294C34.0028 32.9627 33.7343 32.6941 33.4029 32.6941L32.3804 32.694ZM8.16419 11.1748H25.8356V17.0859H8.16419V11.1748ZM7.75328 31.0152H5.7038C5.07759 31.0152 4.56995 30.5075 4.56995 29.8813V29.8527C4.56995 29.2265 5.07759 28.7188 5.7038 28.7188H7.75321C8.37942 28.7188 8.88707 29.2265 8.88707 29.8527V29.8813C8.88714 30.5075 8.37949 31.0152 7.75328 31.0152ZM21.0782 31.3495H12.9216C12.2589 31.3495 11.7217 30.8123 11.7217 30.1497V22.5474C11.7217 21.8848 12.2589 21.3476 12.9216 21.3476H21.0782C21.7408 21.3476 22.278 21.8849 22.278 22.5474V30.1497C22.2781 30.8123 21.7408 31.3495 21.0782 31.3495ZM28.2959 31.0152H26.2465C25.6203 31.0152 25.1126 30.5075 25.1126 29.8813V29.8527C25.1126 29.2265 25.6203 28.7188 26.2465 28.7188H28.2959C28.9221 28.7188 29.4298 29.2265 29.4298 29.8527V29.8813C29.4298 30.5075 28.9221 31.0152 28.2959 31.0152ZM20.8958 25.7386H13.0848C12.7567 25.7386 12.4909 25.4727 12.4909 25.1446V25.1326C12.4909 24.8046 12.7567 24.5387 13.0848 24.5387H20.8958C21.2238 24.5387 21.4897 24.8046 21.4897 25.1326V25.1446C21.4897 25.4727 21.2238 25.7386 20.8958 25.7386ZM20.8958 23.3389H13.0848C12.7567 23.3389 12.4909 23.073 12.4909 22.745V22.7329C12.4909 22.405 12.7567 22.1391 13.0848 22.1391H20.8958C21.2238 22.1391 21.4897 22.405 21.4897 22.7329V22.745C21.4897 23.073 21.2238 23.3389 20.8958 23.3389ZM20.8958 30.538H13.0848C12.7567 30.538 12.4909 30.2721 12.4909 29.9441V29.9321C12.4909 29.604 12.7567 29.3382 13.0848 29.3382H20.8958C21.2238 29.3382 21.4897 29.604 21.4897 29.9321V29.9441C21.4897 30.2721 21.2238 30.538 20.8958 30.538ZM20.8958 28.1383H13.0848C12.7567 28.1383 12.4909 27.8724 12.4909 27.5444V27.5324C12.4909 27.2044 12.7567 26.9385 13.0848 26.9385H20.8958C21.2238 26.9385 21.4897 27.2044 21.4897 27.5324V27.5444C21.4897 27.8724 21.2238 28.1383 20.8958 28.1383Z" fill="#890C8F"/>
</svg>
